<svg xmlns="http://www.w3.org/2000/svg" viewBox="0 0 128 128" role="img" aria-label="玄镜 AegisScope icon">
  <defs>
    <linearGradient id="bg" x1="14" y1="10" x2="116" y2="122" gradientUnits="userSpaceOnUse">
      <stop stop-color="#071a2a"/>
      <stop offset="0.48" stop-color="#03101c"/>
      <stop offset="1" stop-color="#0d1333"/>
    </linearGradient>
    <linearGradient id="scan" x1="23" y1="23" x2="105" y2="105" gradientUnits="userSpaceOnUse">
      <stop stop-color="#66f2c9"/>
      <stop offset="0.52" stop-color="#25d6ff"/>
      <stop offset="1" stop-color="#7c6dff"/>
    </linearGradient>
    <filter id="glow" x="-30%" y="-30%" width="160%" height="160%">
      <feGaussianBlur stdDeviation="3" result="blur"/>
      <feMerge>
        <feMergeNode in="blur"/>
        <feMergeNode in="SourceGraphic"/>
      </feMerge>
    </filter>
  </defs>
  <rect x="6" y="6" width="116" height="116" rx="18" fill="url(#bg)"/>
  <path d="M22 36h84M22 64h84M22 92h84M36 22v84M64 22v84M92 22v84" stroke="#25d6ff" stroke-opacity="0.09" stroke-width="2"/>
  <path d="M64 18l39 22v47l-39 23-39-23V40l39-22z" fill="#041521" stroke="#25d6ff" stroke-width="4" stroke-linejoin="round"/>
  <path d="M64 29l28 16v34L64 96 36 79V45l28-16z" fill="none" stroke="#66f2c9" stroke-opacity="0.72" stroke-width="3" stroke-linejoin="round"/>
  <path d="M37 88L91 34" stroke="url(#scan)" stroke-width="9" stroke-linecap="round" filter="url(#glow)"/>
  <circle cx="64" cy="64" r="21" fill="#07111d" stroke="#25d6ff" stroke-width="5" filter="url(#glow)"/>
  <circle cx="64" cy="64" r="9" fill="#66f2c9"/>
  <path d="M49 64h30M64 49v30" stroke="#dffaff" stroke-opacity="0.78" stroke-width="3" stroke-linecap="round"/>
  <path d="M23 37l14-14M91 105l14-14" stroke="#7c6dff" stroke-width="4" stroke-linecap="round"/>
</svg>
